<svg width="1440" height="680" viewBox="0 0 1440 680" fill="none" xmlns="http://www.w3.org/2000/svg">
<g clip-path="url(#clip0_42_14)">
<rect width="1440" height="680" fill="#FCFDFD"/>
<path d="M1440 113.521L913.317 279.229V401.073L1440 567.041" stroke="black" stroke-opacity="0.16" stroke-width="0.25" stroke-linecap="round" stroke-linejoin="round"/>
<path d="M1440 510.032L977.942 401.073V279.229L1440 170.081" stroke="black" stroke-opacity="0.16" stroke-width="0.25" stroke-linecap="round" stroke-linejoin="round"/>
<path d="M0.112793 0.683106L591.215 279.229V401.073L0.237657 680.119" stroke="black" stroke-opacity="0.16" stroke-width="0.25" stroke-linecap="round" stroke-linejoin="round"/>
<path d="M359.179 0.0831299L655.639 279.229V401.073L359.955 680.061" stroke="black" stroke-opacity="0.16" stroke-width="0.25" stroke-linecap="round" stroke-linejoin="round"/>
<path d="M1079.87 0.0831299L784.475 279.229V401.073L1079.14 680.061" stroke="black" stroke-opacity="0.16" stroke-width="0.25" stroke-linecap="round" stroke-linejoin="round"/>
<path d="M719.525 0.0831299L720.056 279.229V400.915L719.545 680.061" stroke="black" stroke-opacity="0.16" stroke-width="0.25" stroke-linecap="round" stroke-linejoin="round"/>
<path d="M1440 0.181897L848.898 279.229V401.074L1438.74 680.06" stroke="black" stroke-opacity="0.16" stroke-width="0.25" stroke-linecap="round" stroke-linejoin="round"/>
<path d="M0.112793 170.072L461.932 279.229V401.073L0.112793 510.043" stroke="black" stroke-opacity="0.16" stroke-width="0.25" stroke-linecap="round" stroke-linejoin="round"/>
<path d="M0.112793 113.719L526.796 279.229V401.073L0.112793 566.85" stroke="black" stroke-opacity="0.16" stroke-width="0.25" stroke-linecap="round" stroke-linejoin="round"/>
<path d="M0.112793 170.072L461.932 279.229V401.073L0.112793 510.043" stroke="black" stroke-opacity="0.16" stroke-width="0.25" stroke-linecap="round" stroke-linejoin="round"/>
<path d="M1440 170.081L977.942 279.229V401.073L1440 510.032" stroke="black" stroke-opacity="0.16" stroke-width="0.25" stroke-linecap="round" stroke-linejoin="round"/>
<path d="M1440 425.32L977.942 370.495H461.93L0.113685 425.251" stroke="black" stroke-opacity="0.16" stroke-width="0.25" stroke-linecap="round" stroke-linejoin="round"/>
<path d="M1440 255.249L977.942 309.65H461.93L0.113685 255.332" stroke="black" stroke-opacity="0.16" stroke-width="0.25" stroke-linecap="round" stroke-linejoin="round"/>
<path d="M1440 340.284L977.942 340.073H461.93L0.113685 340.291" stroke="black" stroke-opacity="0.16" stroke-width="0.25" stroke-linecap="round" stroke-linejoin="round"/>
<path d="M1440 169.273H0.113685" stroke="black" stroke-opacity="0.16" stroke-width="0.25" stroke-linecap="round" stroke-linejoin="round"/>
<path d="M1440 145.821H0.113685" stroke="black" stroke-opacity="0.16" stroke-width="0.25" stroke-linecap="round" stroke-linejoin="round"/>
<path d="M1440 534.836H0.113685" stroke="black" stroke-opacity="0.16" stroke-width="0.25" stroke-linecap="round" stroke-linejoin="round"/>
<path d="M1440 565.834H0.113685" stroke="black" stroke-opacity="0.16" stroke-width="0.25" stroke-linecap="round" stroke-linejoin="round"/>
<path d="M1440 608.57H0.113685" stroke="black" stroke-opacity="0.16" stroke-width="0.25" stroke-linecap="round" stroke-linejoin="round"/>
<path d="M1440 114.909H0.113685" stroke="black" stroke-opacity="0.16" stroke-width="0.25" stroke-linecap="round" stroke-linejoin="round"/>
<path d="M1440 72.2924H0.113685" stroke="black" stroke-opacity="0.16" stroke-width="0.25" stroke-linecap="round" stroke-linejoin="round"/>
<path d="M1440 9.77921H0.113685" stroke="black" stroke-opacity="0.16" stroke-width="0.25" stroke-linecap="round" stroke-linejoin="round"/>
<path d="M1440 511.322H0.113685" stroke="black" stroke-opacity="0.16" stroke-width="0.25" stroke-linecap="round" stroke-linejoin="round"/>
<path fill-rule="evenodd" clip-rule="evenodd" d="M461.93 401.073H977.942V279.229H461.93V401.073Z" stroke="black" stroke-opacity="0.16" stroke-width="0.25" stroke-linecap="round" stroke-linejoin="round"/>
<path fill-rule="evenodd" clip-rule="evenodd" d="M450.695 403.728H989.223V276.573H450.695V403.728Z" stroke="black" stroke-opacity="0.16" stroke-width="0.25" stroke-linecap="round" stroke-linejoin="round"/>
<path fill-rule="evenodd" clip-rule="evenodd" d="M438.039 406.719H1001.91V273.58H438.039V406.719Z" stroke="black" stroke-opacity="0.16" stroke-width="0.25" stroke-linecap="round" stroke-linejoin="round"/>
<path fill-rule="evenodd" clip-rule="evenodd" d="M424.135 410.004H1015.84V270.295H424.135V410.004Z" stroke="black" stroke-opacity="0.16" stroke-width="0.25" stroke-linecap="round" stroke-linejoin="round"/>
<path fill-rule="evenodd" clip-rule="evenodd" d="M408.792 413.612H1031.14V266.666H408.792V413.612Z" stroke="black" stroke-opacity="0.16" stroke-width="0.25" stroke-linecap="round" stroke-linejoin="round"/>
<path fill-rule="evenodd" clip-rule="evenodd" d="M391.766 417.629H1048.17V262.643H391.766V417.629Z" stroke="black" stroke-opacity="0.16" stroke-width="0.25" stroke-linecap="round" stroke-linejoin="round"/>
<path fill-rule="evenodd" clip-rule="evenodd" d="M372.769 422.111H1067.17V258.155H372.769V422.111Z" stroke="black" stroke-opacity="0.16" stroke-width="0.25" stroke-linecap="round" stroke-linejoin="round"/>
<path fill-rule="evenodd" clip-rule="evenodd" d="M351.442 427.143H1088.52V253.111H351.442V427.143Z" stroke="black" stroke-opacity="0.16" stroke-width="0.25" stroke-linecap="round" stroke-linejoin="round"/>
<path fill-rule="evenodd" clip-rule="evenodd" d="M327.321 432.836H1112.65V247.413H327.321V432.836Z" stroke="black" stroke-opacity="0.16" stroke-width="0.25" stroke-linecap="round" stroke-linejoin="round"/>
<path fill-rule="evenodd" clip-rule="evenodd" d="M299.826 439.323H1140.16V240.912H299.826V439.323Z" stroke="black" stroke-opacity="0.16" stroke-width="0.25" stroke-linecap="round" stroke-linejoin="round"/>
<path fill-rule="evenodd" clip-rule="evenodd" d="M268.189 446.786H1171.82V233.436H268.189V446.786Z" stroke="black" stroke-opacity="0.16" stroke-width="0.25" stroke-linecap="round" stroke-linejoin="round"/>
<path fill-rule="evenodd" clip-rule="evenodd" d="M231.399 455.467H1208.63V224.739H231.399V455.467Z" stroke="black" stroke-opacity="0.16" stroke-width="0.25" stroke-linecap="round" stroke-linejoin="round"/>
<path fill-rule="evenodd" clip-rule="evenodd" d="M188.078 465.691H1251.97V214.499H188.078V465.691Z" stroke="black" stroke-opacity="0.16" stroke-width="0.25" stroke-linecap="round" stroke-linejoin="round"/>
<path fill-rule="evenodd" clip-rule="evenodd" d="M136.358 478.012H1304.22V202.273H136.358V478.012Z" stroke="black" stroke-opacity="0.16" stroke-width="0.25" stroke-linecap="round" stroke-linejoin="round"/>
<path fill-rule="evenodd" clip-rule="evenodd" d="M73.7542 492.665H1366.35V187.478H73.7542V492.665Z" stroke="black" stroke-opacity="0.16" stroke-width="0.25" stroke-linecap="round" stroke-linejoin="round"/>
</g>
<defs>
<clipPath id="clip0_42_14">
<rect width="1440" height="680" fill="white"/>
</clipPath>
</defs>
</svg>
