<svg width="24" height="24" viewBox="0 0 24 24" fill="none" xmlns="http://www.w3.org/2000/svg">
<path fill-rule="evenodd" clip-rule="evenodd" d="M5 1C3.93913 1 2.92172 1.42143 2.17157 2.17157C1.42143 2.92172 1 3.93913 1 5V19C1 20.0609 1.42143 21.0783 2.17157 21.8284C2.92172 22.5786 3.93913 23 5 23H19C20.0609 23 21.0783 22.5786 21.8284 21.8284C22.5786 21.0783 23 20.0609 23 19V5C23 3.93913 22.5786 2.92172 21.8284 2.17157C21.0783 1.42143 20.0609 1 19 1H5ZM20 12C20 14.1217 19.1571 16.1566 17.6569 17.6569C16.1566 19.1571 14.1217 20 12 20C9.87827 20 7.84344 19.1571 6.34315 17.6569C4.84285 16.1566 4 14.1217 4 12C4 9.87827 4.84285 7.84344 6.34315 6.34315C7.84344 4.84285 9.87827 4 12 4C14.1217 4 16.1566 4.84285 17.6569 6.34315C19.1571 7.84344 20 9.87827 20 12ZM7.014 11.23C6.97963 11.2434 6.95003 11.2667 6.92901 11.297C6.90798 11.3272 6.89649 11.3631 6.896 11.4C6.896 11.474 6.945 11.544 7.014 11.57L8.943 12.274L9.527 15.146V15.15C9.54721 15.2576 9.59828 15.357 9.674 15.436C9.74222 15.502 9.82721 15.5481 9.91975 15.5693C10.0123 15.5904 10.1089 15.5858 10.199 15.556C10.2533 15.5335 10.3064 15.5081 10.358 15.48C10.4444 15.4315 10.5298 15.3812 10.614 15.329C10.81 15.209 11.058 15.049 11.299 14.893C11.5902 14.7038 11.8802 14.5128 12.169 14.32L12.242 14.272L14.147 15.65C14.1714 15.6673 14.1996 15.6784 14.2292 15.6824C14.2588 15.6864 14.2889 15.6832 14.317 15.673C14.373 15.653 14.417 15.603 14.431 15.545L16.218 8.026C16.2255 7.99388 16.2242 7.96035 16.2144 7.92888C16.2045 7.89741 16.1864 7.86914 16.162 7.847C16.1369 7.82548 16.1065 7.81106 16.074 7.80526C16.0415 7.79946 16.008 7.80248 15.977 7.814L7.014 11.23ZM10.183 14.723L9.653 12.123L13.662 10.053C13.6855 10.0419 13.7121 10.0394 13.7373 10.0458C13.7625 10.0521 13.7846 10.0671 13.8 10.088C13.8143 10.1098 13.8205 10.136 13.8176 10.1619C13.8147 10.1878 13.8028 10.2119 13.784 10.23L10.772 12.932L10.183 14.723Z" fill="white"/>
</svg>
