<svg width="32" height="32" viewBox="0 0 32 32" fill="none" xmlns="http://www.w3.org/2000/svg">
    <g clip-path="url(#clip0_94_2)">
        <path
            d="M15.8048 32C24.5221 32 31.6095 24.825 31.6095 16C31.6095 7.175 24.5221 0 15.8048 0C7.08745 0 0 7.175 0 16C0 24.825 7.08745 32 15.8048 32Z"
            fill="#0198E9" />
        <path
            d="M8.6909 12.677L8.69091 12.677L8.6895 12.6746C7.87095 11.2598 8.91129 9.5 10.504 9.5H21.2956C22.8999 9.5 23.913 11.2504 23.108 12.6782C23.1078 12.6786 23.1076 12.6789 23.1075 12.6792L16.4411 24.352L16.441 24.352L16.4356 24.3618C16.2103 24.7778 15.6164 24.801 15.3583 24.3516C15.3582 24.3515 15.3581 24.3514 15.3581 24.3512L8.6909 12.677ZM14.4529 21.3245C14.5378 21.4934 14.7106 21.6 14.8997 21.6H14.9244C15.2005 21.6 15.4244 21.3761 15.4244 21.1V13.825C15.4244 13.6222 15.3019 13.4395 15.1143 13.3625C14.9267 13.2854 14.7111 13.3294 14.5686 13.4736L12.0744 15.9986C11.9193 16.1557 11.8855 16.3958 11.9913 16.5896L13.0244 18.4821L14.4529 21.3245ZM15.2566 11.3501C15.3976 11.2064 15.4386 10.9921 15.3607 10.8064C15.2827 10.6208 15.101 10.5 14.8997 10.5H10.504C9.60302 10.5 9.12897 11.4573 9.5235 12.1677C9.52353 12.1677 9.52357 12.1678 9.52361 12.1678L10.9805 14.7927C11.0571 14.9306 11.1943 15.0243 11.3506 15.0455C11.507 15.0666 11.6641 15.0128 11.7746 14.9001L15.2566 11.3501ZM17.3205 21.3276L18.7732 18.4859L19.8306 16.5939C19.9396 16.3988 19.906 16.1551 19.7481 15.9969L17.2292 13.4719C17.0863 13.3286 16.8712 13.2856 16.6842 13.3629C16.4972 13.4403 16.3753 13.6227 16.3753 13.825V18.575V21.1C16.3753 21.3311 16.5336 21.532 16.7582 21.5861C16.9828 21.6402 17.2153 21.5333 17.3205 21.3276ZM20.8935 14.667L22.276 12.1678L22.2765 12.167C22.6786 11.4419 22.1549 10.5 21.2956 10.5H16.8753C16.671 10.5 16.4873 10.6242 16.4112 10.8138C16.3352 11.0034 16.382 11.2201 16.5296 11.3613L20.1104 14.7863C20.2225 14.8935 20.378 14.9427 20.5313 14.9193C20.6847 14.8959 20.8185 14.8027 20.8935 14.667Z"
            fill="white" stroke="white" stroke-linejoin="round" />
    </g>
    <defs>
        <clipPath id="clip0_94_2">
            <rect width="31.6095" height="32" fill="white" />
        </clipPath>
    </defs>
</svg>